<?xml version="1.0" encoding="utf-8"?>
<!-- Generator: Adobe Illustrator 16.0.0, SVG Export Plug-In . SVG Version: 6.00 Build 0)  -->
<!DOCTYPE svg PUBLIC "-//W3C//DTD SVG 1.1//EN" "http://www.w3.org/Graphics/SVG/1.1/DTD/svg11.dtd">
<svg version="1.1" id="Layer_1" xmlns="http://www.w3.org/2000/svg" xmlns:xlink="http://www.w3.org/1999/xlink" x="0px" y="0px"
	 width="45px" height="45px" viewBox="0 0 45 45" enable-background="new 0 0 45 45" xml:space="preserve">
<g>
	<path fill="#FF0000" d="M22,2.411c10.802,0,19.589,8.788,19.589,19.589c0,10.802-8.787,19.589-19.589,19.589
		C11.199,41.589,2.411,32.802,2.411,22C2.411,11.199,11.199,2.411,22,2.411 M22,0.5C10.126,0.5,0.5,10.126,0.5,22
		S10.126,43.5,22,43.5S43.5,33.874,43.5,22S33.874,0.5,22,0.5L22,0.5z"/>
</g>
<path fill="#2E3192" d="M33.727,12H10.802C9.587,12,8,12.989,8,14.205v15.023C8,30.443,9.587,32,10.802,32h22.925
	C34.94,32,36,30.443,36,29.229V14.205C36,12.989,34.94,12,33.727,12z M33.727,13c0.228,0,0.442,0,0.63,0.102l-11.055,9.61
	c-0.562,0.49-1.514,0.476-2.077-0.016l-11.052-9.589c0.187-0.102,0.4-0.107,0.629-0.107H33.727z M35,29.229
	C35,29.957,34.455,31,33.727,31H10.802C10.072,31,9,29.957,9,29.229V14.205c0-0.181,0.276-0.353,0.342-0.51l9.082,7.818
	l-4.986,4.733c-0.178,0.165-0.156,0.445,0.01,0.622c0.088,0.093,0.22,0.14,0.337,0.14c0.108,0,0.225-0.04,0.31-0.12l5.076-4.758
	c0.013-0.012,0.025-0.024,0.037-0.037l1.438,1.254c0.445,0.389,1.033,0.583,1.619,0.583s1.171-0.194,1.618-0.584l1.437-1.253
	c0.012,0.013,0.023,0.025,0.036,0.037l5.071,4.758c0.084,0.08,0.193,0.12,0.301,0.12c0.118,0,0.234-0.047,0.322-0.14
	c0.166-0.177,0.157-0.457-0.02-0.622l-5.045-4.733l8.938-7.815C34.987,13.854,35,14.025,35,14.205V29.229z"/>
</svg>
