<?xml version="1.0" encoding="utf-8"?>
<!-- Generator: Adobe Illustrator 16.0.0, SVG Export Plug-In . SVG Version: 6.00 Build 0)  -->
<!DOCTYPE svg PUBLIC "-//W3C//DTD SVG 1.1//EN" "http://www.w3.org/Graphics/SVG/1.1/DTD/svg11.dtd">
<svg version="1.1" id="Layer_1" xmlns="http://www.w3.org/2000/svg" xmlns:xlink="http://www.w3.org/1999/xlink" x="0px" y="0px"
	 width="45px" height="45px" viewBox="0 0 45 45" enable-background="new 0 0 45 45" xml:space="preserve">
<g>
	<path fill="#FF0000" d="M22,2.411c10.802,0,19.589,8.788,19.589,19.589c0,10.802-8.787,19.589-19.589,19.589
		C11.199,41.589,2.411,32.802,2.411,22C2.411,11.199,11.199,2.411,22,2.411 M22,0.5C10.126,0.5,0.5,10.126,0.5,22
		S10.126,43.5,22,43.5S43.5,33.874,43.5,22S33.874,0.5,22,0.5L22,0.5z"/>
</g>
<g>
	<g>
		<path fill="#2E3192" d="M34.583,30.141c-0.08-0.605-0.43-1.127-0.959-1.433l-6.218-3.579c-0.761-0.438-1.727-0.311-2.349,0.311
			l-1.225,1.225c-0.325,0.326-0.841,0.355-1.199,0.067c-0.965-0.776-1.915-1.632-2.824-2.541c-0.91-0.909-1.765-1.859-2.541-2.825
			c-0.288-0.357-0.26-0.873,0.066-1.199l1.225-1.225c0.621-0.621,0.75-1.587,0.311-2.349l-3.579-6.217
			c-0.305-0.529-0.827-0.879-1.433-0.959s-1.2,0.122-1.632,0.554l-1.846,1.845c-1.287,1.288-1.309,3.645-0.058,6.634
			c1.201,2.875,3.445,6.039,6.316,8.911c2.872,2.871,6.036,5.114,8.911,6.316c1.472,0.615,2.789,0.923,3.902,0.923
			c1.147,0,2.077-0.327,2.731-0.98l1.845-1.846C34.461,31.342,34.663,30.746,34.583,30.141L34.583,30.141z M26.999,25.837
			l6.217,3.579c0.308,0.177,0.511,0.48,0.558,0.832c0.039,0.295-0.038,0.586-0.212,0.82L25.3,26.353l0.335-0.335
			C25.996,25.656,26.558,25.582,26.999,25.837L26.999,25.837z M13.752,10.227c0.352,0.047,0.654,0.25,0.831,0.557L18.163,17
			c0.255,0.442,0.181,1.004-0.181,1.364l-0.308,0.309l-4.741-8.235c0.193-0.144,0.425-0.222,0.667-0.222
			C13.65,10.216,13.701,10.22,13.752,10.227L13.752,10.227z M31.606,33.041c-1.022,1.023-3.115,0.98-5.74-0.117
			c-2.779-1.162-5.852-3.343-8.648-6.142c-2.799-2.798-4.979-5.869-6.142-8.648c-1.099-2.625-1.142-4.718-0.118-5.741l1.37-1.369
			l4.749,8.247l-0.319,0.318c-0.621,0.622-0.675,1.605-0.126,2.288c0.796,0.988,1.67,1.961,2.6,2.891
			c0.931,0.931,1.903,1.805,2.891,2.6c0.684,0.55,1.667,0.496,2.288-0.126l0.291-0.29l8.274,4.722L31.606,33.041L31.606,33.041z"/>
	</g>
</g>
</svg>
